<svg id="visual" viewBox="0 0 3840 2860" width="3840" height="2860" xmlns="http://www.w3.org/2000/svg" xmlns:xlink="http://www.w3.org/1999/xlink" version="1.1"><rect x="0" y="0" width="3840" height="2860" fill="#001220"></rect><defs><linearGradient id="grad1_0" x1="25.5%" y1="0%" x2="100%" y2="100%"><stop offset="23.146853146853147%" stop-color="#fbae3c" stop-opacity="1"></stop><stop offset="76.85314685314685%" stop-color="#fbae3c" stop-opacity="1"></stop></linearGradient></defs><defs><linearGradient id="grad1_1" x1="25.5%" y1="0%" x2="100%" y2="100%"><stop offset="23.146853146853147%" stop-color="#fbae3c" stop-opacity="1"></stop><stop offset="76.85314685314685%" stop-color="#f17c53" stop-opacity="1"></stop></linearGradient></defs><defs><linearGradient id="grad1_2" x1="25.5%" y1="0%" x2="100%" y2="100%"><stop offset="23.146853146853147%" stop-color="#cc5867" stop-opacity="1"></stop><stop offset="76.85314685314685%" stop-color="#f17c53" stop-opacity="1"></stop></linearGradient></defs><defs><linearGradient id="grad1_3" x1="25.5%" y1="0%" x2="100%" y2="100%"><stop offset="23.146853146853147%" stop-color="#cc5867" stop-opacity="1"></stop><stop offset="76.85314685314685%" stop-color="#96446e" stop-opacity="1"></stop></linearGradient></defs><defs><linearGradient id="grad1_4" x1="25.5%" y1="0%" x2="100%" y2="100%"><stop offset="23.146853146853147%" stop-color="#593762" stop-opacity="1"></stop><stop offset="76.85314685314685%" stop-color="#96446e" stop-opacity="1"></stop></linearGradient></defs><defs><linearGradient id="grad1_5" x1="25.5%" y1="0%" x2="100%" y2="100%"><stop offset="23.146853146853147%" stop-color="#593762" stop-opacity="1"></stop><stop offset="76.85314685314685%" stop-color="#232745" stop-opacity="1"></stop></linearGradient></defs><defs><linearGradient id="grad1_6" x1="25.5%" y1="0%" x2="100%" y2="100%"><stop offset="23.146853146853147%" stop-color="#001220" stop-opacity="1"></stop><stop offset="76.85314685314685%" stop-color="#232745" stop-opacity="1"></stop></linearGradient></defs><defs><linearGradient id="grad2_0" x1="0%" y1="0%" x2="74.5%" y2="100%"><stop offset="23.146853146853147%" stop-color="#fbae3c" stop-opacity="1"></stop><stop offset="76.85314685314685%" stop-color="#fbae3c" stop-opacity="1"></stop></linearGradient></defs><defs><linearGradient id="grad2_1" x1="0%" y1="0%" x2="74.5%" y2="100%"><stop offset="23.146853146853147%" stop-color="#f17c53" stop-opacity="1"></stop><stop offset="76.85314685314685%" stop-color="#fbae3c" stop-opacity="1"></stop></linearGradient></defs><defs><linearGradient id="grad2_2" x1="0%" y1="0%" x2="74.5%" y2="100%"><stop offset="23.146853146853147%" stop-color="#f17c53" stop-opacity="1"></stop><stop offset="76.85314685314685%" stop-color="#cc5867" stop-opacity="1"></stop></linearGradient></defs><defs><linearGradient id="grad2_3" x1="0%" y1="0%" x2="74.5%" y2="100%"><stop offset="23.146853146853147%" stop-color="#96446e" stop-opacity="1"></stop><stop offset="76.85314685314685%" stop-color="#cc5867" stop-opacity="1"></stop></linearGradient></defs><defs><linearGradient id="grad2_4" x1="0%" y1="0%" x2="74.5%" y2="100%"><stop offset="23.146853146853147%" stop-color="#96446e" stop-opacity="1"></stop><stop offset="76.85314685314685%" stop-color="#593762" stop-opacity="1"></stop></linearGradient></defs><defs><linearGradient id="grad2_5" x1="0%" y1="0%" x2="74.5%" y2="100%"><stop offset="23.146853146853147%" stop-color="#232745" stop-opacity="1"></stop><stop offset="76.85314685314685%" stop-color="#593762" stop-opacity="1"></stop></linearGradient></defs><defs><linearGradient id="grad2_6" x1="0%" y1="0%" x2="74.5%" y2="100%"><stop offset="23.146853146853147%" stop-color="#232745" stop-opacity="1"></stop><stop offset="76.85314685314685%" stop-color="#001220" stop-opacity="1"></stop></linearGradient></defs><g transform="translate(3840, 0)"><path d="M0 2394C-297.8 2211.4 -595.6 2028.7 -743.6 1795.1C-891.5 1561.5 -889.5 1276.8 -1156.8 1156.8C-1424.1 1036.8 -1960.7 1081.5 -2211.8 916.1C-2462.9 750.8 -2428.4 375.4 -2394 0L0 0Z" fill="#0f1d33"></path><path d="M0 2052C-255.3 1895.5 -510.5 1738.9 -637.3 1538.7C-764.1 1338.4 -762.4 1094.4 -991.6 991.6C-1220.7 888.7 -1680.6 927 -1895.8 785.3C-2111 643.5 -2081.5 321.8 -2052 0L0 0Z" fill="#3d3056"></path><path d="M0 1710C-212.7 1579.6 -425.4 1449.1 -531.1 1282.2C-636.8 1115.3 -635.4 912 -826.3 826.3C-1017.2 740.6 -1400.5 772.5 -1579.8 654.4C-1759.2 536.3 -1734.6 268.1 -1710 0L0 0Z" fill="#773d6b"></path><path d="M0 1368C-170.2 1263.6 -340.4 1159.3 -424.9 1025.8C-509.4 892.3 -508.3 729.6 -661 661C-813.8 592.5 -1120.4 618 -1263.9 523.5C-1407.3 429 -1387.7 214.5 -1368 0L0 0Z" fill="#b34c6d"></path><path d="M0 1026C-127.6 947.7 -255.3 869.5 -318.7 769.3C-382.1 669.2 -381.2 547.2 -495.8 495.8C-610.3 444.4 -840.3 463.5 -947.9 392.6C-1055.5 321.8 -1040.8 160.9 -1026 0L0 0Z" fill="#e1685e"></path><path d="M0 684C-85.1 631.8 -170.2 579.6 -212.4 512.9C-254.7 446.1 -254.1 364.8 -330.5 330.5C-406.9 296.2 -560.2 309 -631.9 261.8C-703.7 214.5 -693.8 107.3 -684 0L0 0Z" fill="#f99447"></path><path d="M0 342C-42.5 315.9 -85.1 289.8 -106.2 256.4C-127.4 223.1 -127.1 182.4 -165.3 165.3C-203.4 148.1 -280.1 154.5 -316 130.9C-351.8 107.3 -346.9 53.6 -342 0L0 0Z" fill="#fbae3c"></path></g><g transform="translate(0, 2860)"><path d="M0 -2394C283.2 -2324.1 566.5 -2254.2 896.2 -2163.7C1226 -2073.3 1602.3 -1962.4 1692.8 -1692.8C1783.4 -1423.3 1588.2 -995.1 1657.4 -686.5C1726.7 -378 2060.3 -189 2394 0L0 0Z" fill="#0f1d33"></path><path d="M0 -2052C242.8 -1992.1 485.6 -1932.1 768.2 -1854.6C1050.9 -1777.1 1373.4 -1682 1451 -1451C1528.6 -1220 1361.3 -852.9 1420.7 -588.5C1480 -324 1766 -162 2052 0L0 0Z" fill="#3d3056"></path><path d="M0 -1710C202.3 -1660.1 404.6 -1610.1 640.2 -1545.5C875.7 -1480.9 1144.5 -1401.7 1209.2 -1209.2C1273.8 -1016.6 1134.4 -710.8 1183.9 -490.4C1233.3 -270 1471.7 -135 1710 0L0 0Z" fill="#773d6b"></path><path d="M0 -1368C161.9 -1328 323.7 -1288.1 512.1 -1236.4C700.6 -1184.7 915.6 -1121.4 967.3 -967.3C1019.1 -813.3 907.5 -568.6 947.1 -392.3C986.7 -216 1177.3 -108 1368 0L0 0Z" fill="#b34c6d"></path><path d="M0 -1026C121.4 -996 242.8 -966.1 384.1 -927.3C525.4 -888.6 686.7 -841 725.5 -725.5C764.3 -610 680.7 -426.5 710.3 -294.2C740 -162 883 -81 1026 0L0 0Z" fill="#e1685e"></path><path d="M0 -684C80.9 -664 161.9 -644 256.1 -618.2C350.3 -592.4 457.8 -560.7 483.7 -483.7C509.5 -406.7 453.8 -284.3 473.6 -196.2C493.3 -108 588.7 -54 684 0L0 0Z" fill="#f99447"></path><path d="M0 -342C40.5 -332 80.9 -322 128 -309.1C175.1 -296.2 228.9 -280.3 241.8 -241.8C254.8 -203.3 226.9 -142.2 236.8 -98.1C246.7 -54 294.3 -27 342 0L0 0Z" fill="#fbae3c"></path></g></svg>